<?xml version="1.0" standalone="no"?>
<!DOCTYPE svg PUBLIC "-//W3C//DTD SVG 20010904//EN"
 "http://www.w3.org/TR/2001/REC-SVG-20010904/DTD/svg10.dtd">
<svg version="1.0" xmlns="http://www.w3.org/2000/svg"
 width="1198.000000pt" height="407.000000pt" viewBox="0 0 1198.000000 407.000000"
 preserveAspectRatio="xMidYMid meet">

<g transform="translate(0.000000,407.000000) scale(0.100000,-0.100000)"
fill="#000000" stroke="none">
<path d="M5992 2179 l-54 -81 -64 4 c-74 5 -91 16 -75 47 13 24 0 29 -19 6
-29 -36 16 -70 105 -77 l29 -3 -29 -19 c-36 -23 -105 -32 -134 -17 -13 7 -21
8 -21 2 0 -17 36 -31 78 -31 30 0 55 10 100 40 37 25 71 40 90 40 28 0 31 -4
37 -40 9 -56 28 -51 19 5 -6 44 -5 45 20 45 14 0 26 5 26 10 0 6 -12 10 -26
10 l-27 0 5 70 c3 39 3 70 -1 70 -3 0 -30 -37 -59 -81z m38 -29 c0 -38 -2 -40
-30 -40 l-30 0 26 40 c15 22 28 40 30 40 2 0 4 -18 4 -40z"/>
<path d="M6973 2241 c-77 -35 -83 -97 -13 -125 22 -9 56 -16 74 -16 61 0 96
-11 96 -31 0 -10 -9 -23 -19 -29 -25 -13 -92 -13 -125 0 -17 6 -26 6 -26 0 0
-28 115 -40 160 -17 28 14 39 57 18 75 -8 6 -48 15 -89 20 -91 12 -121 25
-117 54 6 38 52 62 127 66 83 5 116 -8 107 -44 -6 -21 -3 -24 24 -24 29 0 30
-1 30 -50 0 -92 37 -132 78 -84 29 33 20 45 -12 15 -33 -31 -41 -13 -25 60
l13 59 43 0 c24 0 43 5 43 10 0 6 -20 10 -45 10 -25 0 -45 5 -45 10 0 6 -9 10
-20 10 -11 0 -20 -4 -20 -10 0 -5 -9 -10 -20 -10 -13 0 -20 7 -20 20 0 48
-136 67 -217 31z m274 -108 c-3 -10 -5 -4 -5 12 0 17 2 24 5 18 2 -7 2 -21 0
-30z"/>
<path d="M6711 2226 c-6 -7 -14 -38 -18 -67 -4 -30 -14 -60 -25 -71 -21 -21
-24 -64 -5 -71 6 -2 20 0 30 5 12 6 23 6 31 -1 17 -14 38 -6 54 20 18 29 3 39
-15 12 -33 -49 -50 -11 -28 58 26 78 10 156 -24 115z m10 -96 l-10 -25 0 26
c-1 15 2 42 7 60 l7 34 3 -35 c2 -20 -1 -47 -7 -60z m-21 -58 c0 -5 -7 -17
-15 -28 -14 -19 -14 -19 -15 2 0 11 3 24 7 27 9 10 23 9 23 -1z"/>
<path d="M6136 2098 c-9 -34 -8 -38 9 -38 8 0 15 -4 15 -10 0 -5 -7 -10 -16
-10 -25 0 -10 -25 17 -28 26 -3 79 42 65 55 -4 4 -15 -3 -25 -16 l-18 -24 -14
47 c-15 51 -24 57 -33 24z"/>
<path d="M6255 2094 c-31 -32 -12 -84 30 -84 24 0 65 38 65 61 0 8 -10 2 -23
-15 -27 -33 -60 -33 -65 2 -2 12 1 22 7 22 6 0 11 -4 11 -10 0 -5 5 -10 10
-10 16 0 12 37 -5 44 -8 3 -21 -2 -30 -10z"/>
<path d="M6492 2098 c-15 -15 -16 -38 -2 -38 6 0 10 -9 10 -19 0 -34 18 -33
37 1 16 30 18 31 21 11 2 -12 10 -27 18 -34 12 -10 20 -8 42 14 14 15 22 30
18 34 -5 4 -15 -2 -23 -14 -21 -31 -33 -29 -33 6 0 39 -14 47 -40 21 -19 -19
-20 -19 -20 -1 0 25 -13 34 -28 19z"/>
<path d="M6370 2079 c-14 -25 11 -69 39 -69 23 0 51 31 51 56 -1 16 -4 15 -21
-8 -11 -16 -28 -28 -36 -28 -14 0 -14 3 2 20 19 21 14 50 -9 50 -9 0 -20 -9
-26 -21z m22 -21 c-7 -7 -12 -8 -12 -2 0 14 12 26 19 19 2 -3 -1 -11 -7 -17z"/>
<path d="M7342 2088 c-16 -16 -15 -65 1 -71 8 -3 20 -1 28 3 8 5 19 4 27 -2
10 -9 19 -5 40 15 14 15 22 30 18 34 -5 4 -15 -2 -23 -14 -9 -13 -19 -23 -23
-23 -4 0 -10 10 -14 23 l-6 22 -20 -25 -21 -25 3 25 c2 17 10 26 26 28 12 2
20 8 17 13 -9 13 -39 11 -53 -3z"/>
<path d="M7474 2073 c-8 -31 7 -59 30 -57 9 1 16 1 16 0 0 0 -11 -23 -25 -50
-29 -57 -31 -79 -9 -96 25 -22 47 10 52 77 3 45 10 64 30 85 14 15 22 31 18
35 -4 4 -16 -3 -26 -17 l-18 -24 -4 34 -4 35 -11 -27 c-19 -44 -37 -47 -30 -5
7 42 -9 51 -19 10z m46 -130 c0 -31 -15 -61 -25 -51 -7 7 13 78 21 78 2 0 4
-12 4 -27z"/>
</g>
</svg>
