<?xml version="1.0" standalone="no"?>
<!DOCTYPE svg PUBLIC "-//W3C//DTD SVG 20010904//EN"
 "http://www.w3.org/TR/2001/REC-SVG-20010904/DTD/svg10.dtd">
<svg version="1.0" xmlns="http://www.w3.org/2000/svg"
 width="1200.000000pt" height="1200.000000pt" viewBox="0 0 1200.000000 1200.000000"
 preserveAspectRatio="xMidYMid meet">

<g transform="translate(0.000000,1200.000000) scale(0.100000,-0.100000)"
fill="#000000" stroke="none">
<path d="M9155 6671 c-223 -36 -365 -139 -365 -266 0 -75 52 -131 152 -164 60
-19 102 -26 343 -51 55 -6 116 -18 135 -28 30 -14 35 -23 38 -56 7 -84 -85
-130 -258 -129 -86 0 -119 5 -180 26 -74 25 -98 23 -87 -7 9 -23 131 -57 229
-63 195 -13 333 51 345 161 5 42 3 48 -29 80 -40 40 -79 50 -288 71 -169 16
-227 28 -280 55 -52 27 -70 55 -70 112 0 42 5 54 40 91 42 47 117 87 193 106
204 49 424 24 487 -56 27 -35 27 -89 -1 -98 -12 -4 -19 -14 -17 -23 3 -14 19
-17 94 -20 l90 -3 -8 -81 c-9 -99 4 -233 30 -291 22 -49 74 -97 105 -97 36 0
85 37 117 87 33 53 37 78 15 87 -10 3 -21 -7 -34 -32 -46 -90 -101 -116 -140
-65 -33 41 -34 64 -8 123 23 52 49 149 62 233 l6 37 114 0 c120 0 145 4 145
25 0 21 -25 25 -149 25 l-117 0 -13 36 c-11 31 -16 35 -44 32 -23 -2 -37 -12
-52 -35 -18 -30 -24 -32 -72 -33 -50 0 -53 1 -53 25 0 74 -65 142 -164 170
-68 20 -233 28 -311 16z m665 -202 c0 -5 -7 -9 -15 -9 -15 0 -20 12 -9 23 8 8
24 -1 24 -14z m-4 -120 c-4 -34 -18 -94 -31 -133 l-23 -71 -1 101 c-1 137 5
164 37 164 24 0 25 -1 18 -61z"/>
<path d="M6152 6623 c-38 -76 -250 -390 -280 -413 -26 -21 -35 -22 -187 -18
-137 3 -167 7 -207 25 -73 33 -87 79 -42 132 24 29 27 61 5 61 -5 0 -23 -16
-40 -35 -60 -69 -33 -162 58 -198 55 -23 203 -40 284 -34 l69 4 -33 -33 c-49
-48 -144 -102 -222 -126 -93 -28 -195 -22 -262 15 -26 15 -51 24 -56 21 -18
-11 -8 -35 24 -54 47 -29 102 -42 182 -42 130 1 250 54 384 170 l68 58 113 13
c63 7 119 15 125 18 8 3 14 -22 18 -79 9 -118 27 -172 56 -176 21 -3 23 -1 17
20 -13 43 -35 173 -36 205 0 36 2 37 95 47 53 7 71 17 60 36 -5 9 -28 10 -81
5 l-74 -7 0 124 c1 105 6 169 22 283 2 14 -3 21 -17 22 -15 2 -26 -9 -43 -44z
m-8 -251 l-7 -141 -46 -6 c-25 -4 -71 -10 -101 -15 -30 -4 -56 -7 -57 -6 -2 1
20 33 48 72 27 38 75 109 106 157 30 48 57 86 60 84 2 -3 1 -68 -3 -145z"/>
<path d="M8192 6577 c-34 -36 -52 -127 -52 -264 0 -110 -2 -123 -17 -123 -32
0 -82 -39 -103 -79 -34 -69 -22 -140 29 -161 38 -15 74 0 104 45 l24 36 13
-31 c38 -92 130 -75 194 34 30 51 32 71 11 80 -10 3 -20 -6 -31 -27 -52 -103
-107 -128 -138 -63 -23 49 -22 72 8 154 59 163 78 341 43 395 -22 33 -56 35
-85 4z m56 -136 c-6 -102 -47 -266 -59 -236 -22 56 -2 288 28 334 14 22 16 23
26 6 5 -10 7 -55 5 -104z m-95 -318 c7 -39 -40 -127 -70 -131 -61 -9 -46 109
17 140 45 23 47 23 53 -9z"/>
<path d="M6472 6248 c-7 -7 -12 -32 -12 -57 -1 -26 -7 -57 -14 -70 -8 -14 -12
-31 -9 -38 8 -21 31 -15 46 14 l14 26 18 -46 c9 -25 15 -53 11 -62 -8 -23 -36
-30 -59 -16 -16 10 -22 10 -34 -2 -12 -12 -10 -17 17 -41 40 -33 108 -38 160
-11 33 18 84 72 104 112 21 41 20 53 -1 53 -11 0 -29 -20 -46 -50 -26 -48 -76
-90 -106 -90 -12 0 -12 3 -3 12 20 20 13 73 -18 139 -16 35 -27 72 -24 81 5
18 -11 58 -24 58 -5 0 -13 -5 -20 -12z"/>
<path d="M6865 6202 c-95 -19 -121 -203 -37 -258 67 -44 172 -5 236 89 36 52
39 59 24 73 -14 15 -19 11 -52 -38 -45 -66 -77 -89 -131 -95 -37 -5 -44 -2
-63 22 -44 56 -14 171 42 163 17 -2 21 -9 19 -34 -3 -34 18 -52 35 -31 21 27
22 54 2 79 -21 28 -43 36 -75 30z"/>
<path d="M7522 6175 c-30 -38 -47 -84 -34 -97 14 -14 29 -3 53 40 l20 37 -5
-97 c-4 -79 -3 -98 10 -109 23 -19 43 -2 82 67 75 133 109 153 97 59 -17 -141
84 -181 171 -67 38 51 52 88 36 104 -12 12 -21 2 -62 -65 -31 -50 -66 -72 -87
-55 -8 7 -13 37 -13 83 0 57 -4 75 -18 88 -38 35 -76 13 -134 -77 l-39 -61 6
60 c8 76 -5 115 -39 115 -14 0 -33 -10 -44 -25z"/>
<path d="M7188 6180 c-9 -6 -24 -29 -33 -53 -40 -107 43 -215 144 -187 41 11
97 65 126 121 15 28 15 33 1 47 -13 14 -17 12 -33 -19 -10 -18 -34 -51 -54
-71 -28 -29 -44 -38 -71 -38 -56 0 -61 17 -18 57 21 19 42 47 45 63 6 29 -8
68 -29 82 -15 11 -58 9 -78 -2z m60 -55 c5 -23 -14 -57 -39 -73 -18 -11 -19
-9 -19 27 0 58 49 97 58 46z"/>
<path d="M10110 6168 c-72 -50 -92 -147 -41 -199 16 -16 38 -29 48 -29 24 0
83 37 83 52 0 7 6 4 12 -7 32 -56 82 -59 136 -10 22 19 50 55 63 80 21 39 22
47 9 55 -16 11 -21 6 -63 -59 -12 -19 -34 -43 -49 -54 -27 -20 -28 -20 -48 -2
-11 10 -20 28 -20 39 -1 69 -34 87 -54 29 -34 -100 -124 -95 -96 5 17 67 57
86 133 67 23 -6 27 -4 27 12 0 44 -88 56 -140 21z"/>
<path d="M10496 6153 c-10 -21 -21 -64 -23 -95 -5 -53 -4 -59 25 -87 36 -36
59 -39 96 -10 l26 20 0 -35 c0 -25 -11 -51 -34 -84 -56 -77 -106 -207 -106
-275 0 -71 53 -111 109 -83 48 25 63 81 69 244 l5 144 52 56 c59 64 105 129
105 147 0 7 -7 15 -15 19 -10 3 -26 -11 -49 -47 -18 -29 -48 -65 -66 -82 l-32
-30 6 45 c14 106 12 154 -6 158 -13 2 -21 -11 -34 -58 -27 -99 -82 -144 -103
-87 -10 25 1 104 19 137 6 11 8 25 5 30 -12 20 -32 9 -49 -27z m115 -494 c-10
-74 -31 -119 -57 -119 -43 0 -32 108 24 220 l37 75 3 -52 c2 -29 -1 -85 -7
-124z"/>
</g>
</svg>
