<?xml version="1.0" standalone="no"?>
<!DOCTYPE svg PUBLIC "-//W3C//DTD SVG 20010904//EN"
 "http://www.w3.org/TR/2001/REC-SVG-20010904/DTD/svg10.dtd">
<svg version="1.0" xmlns="http://www.w3.org/2000/svg"
 width="1200.000000pt" height="1200.000000pt" viewBox="0 0 1200.000000 1200.000000"
 preserveAspectRatio="xMidYMid meet">

<g transform="translate(0.000000,1200.000000) scale(0.100000,-0.100000)"
fill="#000000" stroke="none">
<path d="M9186 6669 c-135 -14 -248 -56 -321 -120 -47 -42 -67 -82 -68 -139
-2 -129 105 -181 425 -210 154 -13 205 -27 231 -62 25 -34 17 -71 -24 -109
-45 -42 -98 -54 -234 -53 -103 1 -130 4 -188 26 -65 25 -91 22 -67 -7 17 -20
92 -43 185 -56 91 -12 203 -1 267 25 90 38 133 111 104 180 -24 58 -84 77
-306 96 -207 18 -284 42 -335 102 -56 66 -14 161 99 224 201 111 562 92 621
-33 20 -41 13 -79 -15 -86 -11 -3 -20 -10 -20 -16 0 -7 33 -11 94 -11 l93 0
-5 -120 c-9 -225 41 -353 139 -353 35 0 79 38 116 100 23 39 24 63 3 63 -4 0
-19 -19 -33 -42 -14 -24 -37 -54 -51 -67 -36 -34 -72 -21 -102 37 l-23 43 25
53 c30 66 64 197 64 248 l0 38 130 0 c109 0 130 2 130 15 0 13 -21 15 -129 15
l-129 0 -7 29 c-14 64 -75 67 -101 6 -14 -34 -15 -35 -74 -35 l-60 0 0 43 c0
80 -55 134 -166 161 -80 19 -173 24 -268 15z m634 -199 c0 -13 -7 -20 -20 -20
-22 0 -23 1 -14 24 9 23 34 20 34 -4z m3 -57 c8 -14 -13 -137 -36 -208 l-22
-70 -7 45 c-6 43 -2 169 8 218 3 15 12 22 29 22 13 0 26 -3 28 -7z"/>
<path d="M6160 6628 c-26 -51 -238 -370 -274 -412 l-24 -29 -144 -1 c-160 -1
-232 12 -279 51 -37 31 -38 74 -4 119 30 39 31 44 6 44 -25 0 -59 -43 -67 -86
-9 -49 12 -91 60 -118 58 -34 129 -46 268 -46 l121 0 -19 -21 c-36 -40 -163
-117 -229 -139 -96 -32 -198 -31 -269 4 -55 27 -76 32 -76 18 0 -17 38 -43 89
-63 143 -54 347 6 499 146 l67 62 95 12 c52 6 111 14 131 17 l36 6 7 -73 c14
-141 32 -197 60 -186 14 6 14 10 0 49 -8 23 -17 81 -21 129 l-6 87 72 7 c39 4
74 11 77 17 13 21 -13 28 -77 19 -35 -5 -68 -5 -73 -1 -9 9 8 348 20 403 10
44 -21 34 -46 -15z m-8 -243 c-3 -150 -4 -155 -25 -159 -24 -5 -184 -26 -199
-26 -6 0 4 17 20 38 16 20 69 97 117 170 48 72 88 132 88 132 1 0 1 -70 -1
-155z"/>
<path d="M8202 6585 c-38 -27 -57 -113 -57 -265 l0 -135 -24 -2 c-28 -1 -67
-28 -94 -65 -26 -35 -28 -120 -2 -148 30 -33 77 -27 114 15 17 20 31 41 31 48
1 7 9 -4 20 -24 25 -47 45 -62 81 -62 35 0 79 38 116 100 23 39 24 63 3 63 -4
0 -19 -19 -33 -42 -33 -56 -71 -91 -94 -86 -10 1 -29 24 -42 51 l-24 48 32 92
c64 187 80 350 40 401 -24 30 -36 32 -67 11z m50 -61 c16 -57 -37 -344 -63
-344 -13 0 -11 230 2 292 20 92 44 113 61 52z m-107 -464 c-33 -74 -85 -99
-101 -48 -16 51 19 115 76 136 22 9 26 7 34 -19 7 -22 4 -39 -9 -69z"/>
<path d="M6466 6232 c-4 -11 -4 -26 -1 -34 3 -8 -1 -35 -9 -59 -9 -24 -16 -47
-16 -51 0 -17 30 -7 40 12 6 11 15 18 20 15 15 -10 32 -75 25 -102 -6 -24 -9
-25 -50 -18 -37 5 -45 3 -45 -10 0 -23 60 -55 105 -55 55 0 114 36 153 94 30
46 43 92 23 84 -5 -1 -24 -25 -43 -52 -34 -52 -67 -80 -105 -91 -22 -6 -22 -5
-8 22 20 39 19 54 -11 120 -15 32 -30 76 -33 98 -7 44 -35 60 -45 27z"/>
<path d="M6831 6184 c-71 -50 -65 -204 10 -244 35 -19 113 -7 154 25 67 50
120 145 82 145 -7 0 -21 -16 -32 -36 -54 -101 -178 -143 -216 -72 -17 31 -14
104 5 133 12 18 26 25 47 25 29 0 31 -2 27 -31 -5 -34 17 -53 33 -28 40 63
-46 128 -110 83z"/>
<path d="M7542 6193 c-16 -6 -63 -98 -55 -107 15 -15 31 -3 48 34 10 22 22 40
27 40 5 0 6 -43 2 -101 -5 -78 -4 -103 6 -109 23 -14 38 0 76 68 35 66 80 122
96 122 4 0 8 -36 8 -79 0 -75 2 -81 27 -101 32 -25 65 -20 102 13 29 27 81
106 81 124 0 24 -29 13 -45 -17 -24 -47 -75 -100 -96 -100 -26 0 -41 43 -33
96 7 51 -1 81 -26 94 -32 17 -68 -9 -117 -87 -26 -40 -47 -73 -47 -73 -1 0 0
36 2 81 4 97 -9 121 -56 102z"/>
<path d="M7184 6167 c-20 -18 -28 -35 -31 -74 -12 -116 81 -188 177 -138 33
17 100 110 100 137 0 33 -25 17 -55 -35 -38 -65 -86 -93 -133 -76 -18 6 -32
13 -32 15 0 3 18 22 40 43 34 32 40 44 40 79 0 31 -5 45 -22 56 -31 22 -52 20
-84 -7z m70 -32 c8 -21 -7 -56 -33 -80 -19 -16 -24 -17 -31 -5 -10 16 -2 69
13 88 13 17 44 15 51 -3z"/>
<path d="M10135 6176 c-71 -31 -112 -124 -81 -184 25 -49 78 -57 122 -18 l28
23 21 -25 c27 -31 75 -34 113 -5 31 22 94 122 86 134 -12 20 -30 7 -53 -37
-27 -50 -64 -84 -92 -84 -21 0 -49 47 -49 84 0 50 -32 38 -45 -17 -7 -25 -47
-67 -66 -67 -4 0 -15 8 -24 17 -27 26 -14 91 26 126 32 29 47 31 107 12 34
-11 28 21 -8 40 -35 18 -46 18 -85 1z"/>
<path d="M10513 6178 c-22 -28 -38 -107 -35 -165 4 -54 73 -80 120 -47 22 15
22 14 22 -23 0 -26 -8 -50 -26 -74 -87 -116 -134 -300 -88 -350 26 -29 78 -25
103 7 33 42 43 90 46 232 l4 134 50 53 c57 60 113 144 105 156 -11 18 -30 8
-48 -25 -10 -19 -38 -56 -62 -82 l-44 -49 2 100 c2 59 -1 102 -7 105 -5 3 -20
-26 -32 -65 -20 -62 -50 -105 -73 -105 -19 0 -40 34 -40 63 0 18 8 53 17 80
12 32 14 50 7 57 -8 8 -14 7 -21 -2z m97 -552 c-19 -90 -58 -123 -82 -70 -17
36 2 116 49 212 l38 77 3 -84 c2 -47 -2 -107 -8 -135z"/>
</g>
</svg>
