<?xml version="1.0" standalone="no"?>
<!DOCTYPE svg PUBLIC "-//W3C//DTD SVG 20010904//EN"
 "http://www.w3.org/TR/2001/REC-SVG-20010904/DTD/svg10.dtd">
<svg version="1.0" xmlns="http://www.w3.org/2000/svg"
 width="800.000000pt" height="1480.000000pt" viewBox="0 0 800.000000 1480.000000"
 preserveAspectRatio="xMidYMid meet">

<g transform="translate(0.000000,1480.000000) scale(0.100000,-0.100000)"
fill="#000000" stroke="none">
<path d="M4062 7752 c-34 -54 -82 -127 -107 -161 l-46 -63 -123 3 c-96 3 -128
8 -149 22 -30 20 -36 57 -12 77 19 16 19 40 1 40 -22 0 -46 -40 -46 -76 0 -65
75 -99 222 -99 l67 0 -22 -23 c-12 -13 -51 -37 -86 -55 -55 -27 -77 -32 -136
-32 -51 0 -77 5 -97 18 -33 23 -57 13 -33 -13 24 -26 98 -44 160 -37 71 7 145
42 217 100 50 41 67 48 125 57 106 15 99 18 106 -55 6 -68 20 -105 39 -105 6
0 8 11 4 28 -3 15 -9 55 -12 90 l-7 62 29 0 c45 0 74 11 74 27 0 12 -10 14
-51 8 l-51 -7 5 123 c3 68 7 133 8 143 9 47 -23 18 -79 -72z m33 -111 c-6 -77
-10 -91 -25 -91 -9 0 -39 -3 -65 -7 l-47 -6 68 102 c37 55 69 99 72 97 2 -3 1
-46 -3 -95z"/>
<path d="M6028 7831 c-110 -36 -168 -92 -168 -163 0 -74 60 -111 212 -129 228
-27 250 -35 232 -86 -15 -45 -74 -68 -169 -67 -47 1 -98 8 -124 18 -53 20 -61
20 -61 2 0 -15 34 -31 100 -46 144 -32 290 23 290 108 0 59 -38 78 -184 92
-157 16 -206 28 -238 60 -16 16 -28 39 -28 53 0 32 42 83 89 106 90 47 281 54
356 15 49 -26 68 -67 40 -87 -29 -22 -8 -37 50 -37 l53 0 0 -99 c0 -139 34
-211 99 -211 32 0 102 88 88 110 -11 17 -20 11 -40 -26 -26 -48 -51 -61 -76
-38 -29 26 -31 47 -10 95 11 24 25 72 31 106 l12 62 82 3 c64 2 81 6 81 18 0
12 -17 16 -85 18 -76 2 -87 5 -95 24 -15 32 -32 33 -58 4 -16 -17 -35 -26 -56
-26 -26 0 -31 4 -31 24 0 37 -44 82 -97 100 -65 22 -220 21 -295 -3z m515
-198 c-3 -21 -12 -56 -19 -78 -12 -40 -12 -40 -13 38 -1 70 1 77 18 77 17 0
19 -5 14 -37z"/>
<path d="M5455 7777 c-21 -33 -38 -132 -33 -194 3 -38 1 -53 -8 -53 -7 0 -26
-12 -43 -26 -38 -32 -50 -84 -27 -119 21 -32 50 -32 83 2 17 16 29 21 31 14 7
-22 33 -41 56 -41 39 0 109 91 87 113 -6 6 -12 9 -14 6 -1 -2 -15 -23 -30 -46
-32 -51 -51 -54 -72 -13 -15 29 -14 35 11 113 30 94 42 213 25 245 -15 29 -47
28 -66 -1z m42 -91 c-4 -39 -13 -89 -20 -111 l-14 -39 -6 43 c-5 42 5 140 18
173 4 10 12 15 17 12 7 -4 8 -33 5 -78z m-74 -250 c-19 -41 -37 -51 -53 -31
-17 20 1 67 31 82 34 17 44 -6 22 -51z"/>
<path d="M4307 7533 c-3 -21 -9 -48 -13 -60 -5 -17 -2 -23 10 -23 9 0 16 5 16
10 0 23 19 7 25 -21 8 -35 -10 -56 -33 -37 -9 8 -16 8 -25 -1 -9 -10 -7 -17
12 -32 48 -39 128 -14 170 55 21 33 21 56 1 56 -5 0 -11 -9 -15 -19 -7 -24
-59 -81 -73 -81 -5 0 -7 11 -4 25 2 14 -4 47 -14 73 -18 45 -20 53 -23 80 -3
29 -29 10 -34 -25z"/>
<path d="M4545 7515 c-36 -35 -37 -105 -2 -143 19 -20 29 -23 67 -19 37 4 51
12 83 47 35 40 49 80 28 80 -5 0 -19 -16 -31 -35 -34 -54 -100 -81 -128 -53
-19 19 -15 82 7 102 24 21 41 14 34 -14 -7 -27 23 -27 32 1 8 25 -19 59 -47
59 -10 0 -30 -11 -43 -25z"/>
<path d="M5011 7514 c-25 -31 -27 -64 -6 -64 8 0 15 6 15 14 0 8 5 18 11 22 8
4 10 -12 8 -57 -4 -58 -2 -64 15 -64 13 0 30 18 50 52 49 82 56 86 56 26 0
-57 17 -83 54 -83 38 0 109 91 88 112 -7 7 -19 -3 -37 -30 -43 -65 -80 -64
-72 3 12 83 -36 97 -90 27 l-33 -44 0 50 c0 36 -4 52 -16 56 -22 8 -20 9 -43
-20z"/>
<path d="M4781 7504 c-51 -65 2 -157 84 -145 44 6 108 93 85 115 -9 8 -14 8
-17 -1 -22 -59 -70 -94 -110 -78 -14 5 -13 8 6 21 34 24 45 62 26 90 -20 31
-49 30 -74 -2z m49 -23 c0 -11 -8 -27 -17 -37 -16 -16 -18 -16 -21 -1 -4 19
15 57 28 57 6 0 10 -9 10 -19z"/>
<path d="M6731 7504 c-34 -28 -49 -81 -32 -113 16 -30 57 -38 81 -16 19 17 21
17 38 2 10 -10 28 -17 39 -17 25 0 81 56 90 88 7 30 -6 42 -21 18 -26 -44 -63
-79 -78 -73 -9 3 -18 22 -22 41 -9 45 -22 46 -40 2 -18 -42 -34 -53 -53 -34
-35 36 23 112 67 88 32 -17 53 5 26 26 -29 21 -61 17 -95 -12z"/>
<path d="M6994 7495 c-34 -81 -3 -150 57 -128 26 10 29 9 29 -8 0 -11 -13 -37
-29 -60 -39 -53 -63 -127 -59 -181 3 -36 7 -44 30 -52 55 -19 88 52 88 191 0
64 1 66 50 125 46 55 64 98 41 98 -5 0 -19 -15 -30 -33 -11 -18 -30 -42 -41
-52 l-21 -19 3 59 c2 33 -1 62 -7 65 -5 3 -17 -17 -27 -44 -38 -107 -81 -73
-53 42 10 44 -12 43 -31 -3z m82 -287 c-7 -74 -28 -124 -48 -112 -6 4 -8 24
-5 48 5 43 41 136 53 136 4 0 4 -32 0 -72z"/>
</g>
</svg>
